HIERARCHY
ROOT Hips
{
	OFFSET 0.00000 0.00000 0.00000
	CHANNELS 6 Xposition Yposition Zposition Zrotation Yrotation Xrotation 
	JOINT LHipJoint
	{
		OFFSET 0 0 0
		CHANNELS 3 Zrotation Yrotation Xrotation
		JOINT LeftHip
		{
			OFFSET 1.28858 -1.83292 1.03970
			CHANNELS 3 Zrotation Yrotation Xrotation
			JOINT LeftKnee
			{
				OFFSET 2.47846 -6.80952 0.00000
				CHANNELS 3 Zrotation Yrotation Xrotation
				JOINT LeftAnkle
				{
					OFFSET 2.75274 -7.56311 0.00000
					CHANNELS 3 Zrotation Yrotation Xrotation
					JOINT LeftToe
					{
						OFFSET 0.12848 -0.35301 1.68223
						CHANNELS 3 Zrotation Yrotation Xrotation
						End Site
						{
							OFFSET 0.00000 -0.00000 0.87311
						}
					}
				}
			}
		}
	}
	JOINT RHipJoint
	{
		OFFSET 0 0 0
		CHANNELS 3 Zrotation Yrotation Xrotation
		JOINT RightHip
		{
			OFFSET -1.31183 -1.83292 1.03970
			CHANNELS 3 Zrotation Yrotation Xrotation
			JOINT RightKnee
			{
				OFFSET -2.44740 -6.72417 0.00000
				CHANNELS 3 Zrotation Yrotation Xrotation
				JOINT RightAnkle
				{
					OFFSET -2.67343 -7.34519 0.00000
					CHANNELS 3 Zrotation Yrotation Xrotation
					JOINT RightToe
					{
						OFFSET -0.16914 -0.46471 1.77626
						CHANNELS 3 Zrotation Yrotation Xrotation
						End Site
						{
							OFFSET -0.00000 -0.00000 0.92777
						}
					}
				}
			}
		}
	}
	JOINT lowerback
	{
		OFFSET 0 0 0
		CHANNELS 3 Zrotation Yrotation Xrotation
		JOINT Chest
		{
			OFFSET 0.01249 2.14252 0.03842
			CHANNELS 3 Zrotation Yrotation Xrotation
			JOINT Chest2
			{
				OFFSET -0.02957 2.14199 -0.03751
				CHANNELS 3 Zrotation Yrotation Xrotation
				JOINT lowerneck
				{
					OFFSET 0 0 0
					CHANNELS 3 Zrotation Yrotation Xrotation
					JOINT Neck
					{
						OFFSET -0.01678 1.65709 -0.05476
						CHANNELS 3 Zrotation Yrotation Xrotation
						JOINT Head
						{
							OFFSET 0.07912 1.58331 -0.11843
							CHANNELS 3 Zrotation Yrotation Xrotation
							End Site
							{
								OFFSET 0.03298 1.73940 -0.04271
							}
						}
					}
				}
				JOINT LeftCollar
				{
					OFFSET 0 0 0
					CHANNELS 3 Zrotation Yrotation Xrotation
					JOINT LeftShoulder
					{
						OFFSET 3.39556 1.16496 0.08673
CHANNELS 3 Zrotation Xrotation Yrotation
						JOINT LeftElbow
						{
OFFSET 0 -5.239100 -0.000000
CHANNELS 3 Zrotation Xrotation Yrotation
							JOINT LeftWrist
							{
OFFSET 0 -3.314670 0.000000
CHANNELS 3 Zrotation Xrotation Yrotation
								JOINT lhand
								{
									OFFSET 0 0 0
CHANNELS 3 Zrotation Xrotation Yrotation
									JOINT LFingers
									{
OFFSET 0 -0.965900 0.000000
CHANNELS 3 Zrotation Xrotation Yrotation
										End Site
										{
OFFSET 0 -0.778730 0.000000
										}
									}
								}
								JOINT LThumb
								{
OFFSET 0 0.000000 0.000000
CHANNELS 3 Zrotation Xrotation Yrotation
									End Site
									{
OFFSET 0 -0.790620 0.790620
									}
								}
							}
						}
					}
				}
				JOINT RightCollar
				{
					OFFSET 0 0 0
					CHANNELS 3 Zrotation Yrotation Xrotation
					JOINT RightShoulder
					{
						OFFSET -3.27193 1.31331 0.33940
CHANNELS 3 Zrotation Xrotation Yrotation
						JOINT RightElbow
						{
OFFSET 0 -5.302520 0.000000
CHANNELS 3 Zrotation Xrotation Yrotation
							JOINT RightWrist
							{
OFFSET 0 -3.678750 0.000000
CHANNELS 3 Zrotation Xrotation Yrotation
								JOINT rhand
								{
									OFFSET 0 0 0
CHANNELS 3 Zrotation Xrotation Yrotation
									JOINT RFingers
									{
OFFSET 0 -0.594810 0.000000
CHANNELS 3 Zrotation Xrotation Yrotation
										End Site
										{
OFFSET 0 -0.479550 0.000000
										}
									}
								}
								JOINT RThumb
								{
OFFSET 0 0.000000 0.000000
CHANNELS 3 Zrotation Xrotation Yrotation
									End Site
									{
OFFSET 0 -0.486870 0.486870
									}
								}
							}
						}
					}
				}
			}
		}
	}
}
MOTION
Frames: 9
Frame Time: 0.008333333333333333
11.776783 18.093351 10.834184 1.630398 5.005848 3.027311 0.000000 0.000000 0.000000 -22.485333 1.779699 6.684330 0.139727 2.408963 6.637236 -0.506966 -14.303383 -2.178172 4.406198 12.682150 38.190149 0.000000 0.000000 0.000000 12.677134 6.694327 -19.106377 -0.635300 -5.098993 14.191283 -1.088926 -10.829958 -26.374824 -0.006470 -0.519124 1.426487 -4.563195 -0.959005 -5.202341 -1.489960 -0.924730 0.786047 0.941349 -0.540003 3.782744 0.944170 -0.487874 2.220144 4.526655 -1.140276 12.860670 1.305476 -0.346516 3.820752 0.000000 0.000000 0.000000 13.774980 -16.364287 -52.023313 16.169421 -25.749703 3.719282 13.863950 -16.101059 9.323341 0.000000 0.000000 0.000000 -7.125000 0.000000 0.000000 -9.355642 20.440105 -5.573039 0.000000 0.000000 0.000000 -0.181474 19.519529 14.213802 -11.811005 -19.520661 -2.038736 6.327057 3.997420 47.804676 0.000000 0.000000 0.000000 7.125000 0.000000 0.000000 64.275028 67.152319 -40.473541
11.782698 18.039729 11.157963 1.859500 5.357901 3.333481 0.000000 0.000000 0.000000 -22.529878 2.067444 7.180854 0.157899 2.560530 7.057455 -0.599940 -15.297359 -1.919920 4.528381 12.832230 38.743571 0.000000 0.000000 0.000000 12.322511 8.073044 -18.501375 -0.310399 -3.579481 9.896846 -1.212553 -12.336740 -28.560379 -0.000412 0.122475 -0.336482 -4.747675 -1.066096 -5.502068 -1.405966 -1.043034 0.689283 1.116977 -0.603587 3.862691 0.889064 -0.544904 2.346495 4.986126 -1.278762 13.237324 1.470622 -0.394036 3.942465 0.000000 0.000000 0.000000 14.009462 -16.590994 -51.729330 17.418848 -27.406375 4.278510 14.281400 -16.946273 9.523268 0.000000 0.000000 0.000000 -7.125000 0.000000 0.000000 -9.051929 20.216283 -5.433682 0.000000 0.000000 0.000000 0.026037 19.910026 14.100518 -11.680361 -19.323559 -1.995283 7.153737 3.777225 47.878967 0.000000 0.000000 0.000000 7.125000 0.000000 0.000000 65.053546 66.924436 -40.831890
11.791465 17.982762 11.488016 2.154583 5.658368 3.627768 0.000000 0.000000 0.000000 -22.667109 2.348704 7.671404 0.182624 2.752256 7.589716 -0.705750 -16.293228 -1.540303 4.768653 13.118361 39.813222 0.000000 0.000000 0.000000 11.767316 9.830036 -17.587024 -0.108622 -2.119411 5.836009 -1.344804 -13.445297 -30.410571 -0.001230 0.230279 -0.632655 -4.952157 -1.194144 -5.780394 -1.330663 -1.186774 0.620888 1.291528 -0.680857 3.962901 0.842287 -0.575194 2.418022 5.326177 -1.363667 13.432998 1.594445 -0.421909 4.007693 0.000000 0.000000 0.000000 14.195008 -16.618072 -51.263682 18.759408 -29.118217 4.913422 14.765308 -17.786126 9.682048 0.000000 0.000000 0.000000 -7.125000 0.000000 0.000000 -8.703331 20.029333 -5.256303 0.000000 0.000000 0.000000 0.114097 20.179025 14.152277 -11.636246 -19.256926 -1.980680 8.412685 3.126281 48.119154 0.000000 0.000000 0.000000 7.125000 0.000000 0.000000 66.484436 66.636857 -41.663202
11.799455 17.922753 11.821671 2.397392 5.890396 3.904359 0.000000 0.000000 0.000000 -22.758318 2.543473 8.151040 0.217447 3.001927 8.284229 -0.816666 -17.246256 -1.115537 5.092269 13.486739 41.219411 0.000000 0.000000 0.000000 11.071652 12.725366 -16.145537 -0.015407 -0.783124 2.152431 -1.577812 -14.513204 -32.779370 -0.001309 -0.216661 0.595243 -5.076319 -1.309110 -5.998490 -1.238162 -1.323174 0.545131 1.440394 -0.752063 4.020698 0.799804 -0.614870 2.441220 5.570652 -1.450073 13.564657 1.684686 -0.454584 4.058116 0.000000 0.000000 0.000000 14.322059 -16.397939 -50.648706 20.195792 -30.876824 5.631764 15.303074 -18.454677 9.815874 0.000000 0.000000 0.000000 -7.125000 0.000000 0.000000 -8.317876 19.863469 -5.049736 0.000000 0.000000 0.000000 0.151603 20.371202 14.250913 -11.614117 -19.223436 -1.973430 9.325743 2.629366 48.241364 0.000000 0.000000 0.000000 7.125000 0.000000 0.000000 67.406115 66.404001 -42.141468
11.805130 17.861668 12.158020 2.565690 6.073643 4.148324 0.000000 0.000000 0.000000 -22.780485 2.642593 8.644797 0.262909 3.298363 9.110436 -0.928261 -18.124510 -0.655080 5.439285 13.861813 42.687078 0.000000 0.000000 0.000000 10.376690 16.538118 -14.492417 -0.001792 0.238861 -0.656369 -1.993759 -15.650421 -36.065859 -0.022793 -0.969208 2.664043 -5.096866 -1.383582 -6.164195 -1.124910 -1.417618 0.459988 1.557588 -0.799454 4.034969 0.780558 -0.701764 2.428918 5.672023 -1.586664 13.711083 1.721335 -0.515416 4.119915 0.000000 0.000000 0.000000 14.405546 -16.011477 -50.114919 21.670206 -32.601474 6.407654 15.916424 -19.197033 10.065773 0.000000 0.000000 0.000000 -7.125000 0.000000 0.000000 -7.877838 19.572036 -4.829048 0.000000 0.000000 0.000000 0.169471 20.535509 14.374204 -11.546804 -19.121505 -1.951280 9.384186 2.887938 48.046734 0.000000 0.000000 0.000000 7.125000 0.000000 0.000000 67.060909 66.298094 -41.708770
11.813827 17.803006 12.500428 2.739336 6.307690 4.329340 0.000000 0.000000 0.000000 -22.865214 2.653004 9.238262 0.316137 3.613860 9.992716 -1.040607 -18.892380 -0.021230 5.829319 14.260631 44.292303 0.000000 0.000000 0.000000 10.038746 18.770858 -13.694972 -0.012115 0.708384 -1.946774 -2.326490 -16.050901 -38.098273 -0.030663 -1.129863 3.106128 -5.073378 -1.481395 -6.304274 -1.000463 -1.547246 0.417377 1.657797 -0.864745 4.080795 0.754061 -0.790573 2.395932 5.659431 -1.710820 13.801112 1.719842 -0.575972 4.163013 0.000000 0.000000 0.000000 14.437082 -15.539190 -49.672100 23.073144 -34.167842 7.179692 16.621661 -20.083950 10.506858 0.000000 0.000000 0.000000 -7.125000 0.000000 0.000000 -7.373588 19.074415 -4.597039 0.000000 0.000000 0.000000 0.098713 20.618906 14.582387 -11.469549 -19.004334 -1.926024 9.006043 3.549883 47.813901 0.000000 0.000000 0.000000 7.125000 0.000000 0.000000 66.316359 66.310232 -41.096142
11.825832 17.747607 12.849973 2.912559 6.617035 4.411779 0.000000 0.000000 0.000000 -22.958004 2.630851 9.920554 0.379294 3.954640 10.949124 -1.135218 -19.451015 0.693855 6.090623 14.515530 45.344190 0.000000 0.000000 0.000000 10.413006 17.488521 -14.379441 -0.007612 0.561592 -1.543245 -2.166849 -14.960122 -36.426256 -0.004467 -0.403821 1.109745 -5.012434 -1.605323 -6.398499 -0.862319 -1.716111 0.432381 1.746959 -0.950675 4.163457 0.687244 -0.857059 2.401529 5.629922 -1.793781 13.751077 1.718582 -0.622491 4.146601 0.000000 0.000000 0.000000 14.353034 -14.961736 -49.196714 24.374253 -35.556751 7.923516 17.196126 -20.784588 10.998011 0.000000 0.000000 0.000000 -7.125000 0.000000 0.000000 -6.966578 18.528527 -4.424336 0.000000 0.000000 0.000000 -0.045927 20.582891 14.704942 -11.424826 -18.936484 -1.911512 8.772578 4.003736 47.819427 0.000000 0.000000 0.000000 7.125000 0.000000 0.000000 66.152175 66.385934 -41.056951
11.834274 17.692847 13.207084 3.126511 6.953610 4.406924 0.000000 0.000000 0.000000 -22.997368 2.656189 10.526174 0.471422 4.402497 12.212143 -1.210896 -19.826830 1.483309 6.152349 14.574364 45.590282 0.000000 0.000000 0.000000 11.063961 14.944523 -15.445612 -0.000431 0.106400 -0.292240 -1.705830 -13.482141 -32.674298 -0.009822 0.615245 -1.690751 -5.039097 -1.741277 -6.392185 -0.705611 -1.901971 0.435447 1.905022 -1.045678 4.182242 0.634496 -0.922851 2.464535 5.517999 -1.862800 13.654642 1.686356 -0.666574 4.100211 0.000000 0.000000 0.000000 14.128174 -14.167521 -48.651395 25.563555 -36.773728 8.625373 17.541651 -21.178311 11.493073 0.000000 0.000000 0.000000 -7.125000 0.000000 0.000000 -6.725173 17.990982 -4.349195 0.000000 0.000000 0.000000 -0.263479 20.497875 14.638139 -11.389324 -18.882546 -1.900011 8.659247 4.283002 47.821070 0.000000 0.000000 0.000000 7.125000 0.000000 0.000000 66.070363 66.422332 -41.035591
11.839408 17.640359 13.573825 3.290752 7.384949 4.319257 0.000000 0.000000 0.000000 -22.868621 2.692193 10.993006 0.607920 4.988979 13.877497 -1.252957 -19.892080 2.516795 6.119597 14.543244 45.459820 0.000000 0.000000 0.000000 11.555167 13.420178 -15.693235 -0.001313 -0.229187 0.629743 -1.079225 -13.398759 -28.566110 -0.028970 1.098952 -3.021139 -5.033277 -1.878159 -6.304310 -0.522092 -2.098906 0.403706 2.074706 -1.143607 4.120633 0.563733 -1.026553 2.576870 5.363339 -1.977638 13.576568 1.642035 -0.735923 4.051812 0.000000 0.000000 0.000000 13.783354 -13.194957 -48.203535 26.562559 -37.758336 9.230172 17.700736 -21.440472 11.993979 0.000000 0.000000 0.000000 -7.125000 0.000000 0.000000 -6.617641 17.459456 -4.356499 0.000000 0.000000 0.000000 -0.527193 20.425858 14.542148 -11.369434 -18.852277 -1.893572 8.442083 4.417806 47.755908 0.000000 0.000000 0.000000 7.125000 0.000000 0.000000 65.776955 66.460151 -40.838925
